<?xml version="1.0" encoding="utf-8"?>
<svg viewBox="0 0 60 60" width="60" height="60" xmlns="http://www.w3.org/2000/svg" xmlns:xlink="http://www.w3.org/1999/xlink">
  <defs/>
  <image width="60" height="60" class="collider" xlink:href="Uphill Both Ways.png"/>
  <circle style="fill: rgb(107, 218, 85); transform-origin: 37.637px 11.763px;" cx="37.637" cy="11.763" r="0.198" class="pickup"/>
  <polygon style="fill: none; stroke: rgb(255, 0, 0); stroke-width: 0.2px;" points="18.871 13.617 20.114 14.377 22.246 17.256 24.195 18.395 25.918 18.616 28.073 17.918 30.162 16.638 32.504 15.504 34.414 15.148 36.259 15.057 37.166 15.605 37.81 16.91 39.84 19.146 42.15 20.802 44.078 22.371 45.064 24.617 44.568 27.223 43.432 29.094 42.963 31.767 43.462 34.637 44.151 36.984 44.465 39.292 44.4 40.914 43.62 42.072 42.843 42.475 41.988 42.341 40.823 41.858 39.815 41.52 38.422 41.836 37.537 42.177 36.825 43.089 36.096 43.652 34.985 44.138 34.486 44.128 33.861 43.531 33.685 42.384 33.485 40.713 33.808 38.209 35.343 34.567 37.299 31.383 38.594 29.233 39.181 27.375 39.09 25.9 38.751 23.865 38 22.941 36.868 21.922 35.376 21.304 34.105 21.233 32.146 21.208 30.424 21.437 28.981 22.193 27.535 22.974 26.365 24.233 25.414 25.335 24.415 26.986 23.901 28.819 23.205 30.775 22.537 33.234 22.216 35.081 21.664 36.884 20.372 39.312 19.513 40.675 18.322 42.065 16.872 42.579 15.697 42.523 15.079 42.001 14.773 40.275 15.118 38.77 15.953 36.876 17.621 35.303 19.618 33.697 20.556 32.727 21.151 31.513 21.58 29.138 21.319 27.621 20.74 26.233 18.805 24.04 17.294 22.397 15.828 20.098 15.014 18.164 15.33 16.523 16.367 14.802 17.638 13.839" class="slow"/>
  <polygon style="fill: none; stroke: rgb(255, 0, 0); stroke-width: 0.2px;" points="11.18 46.35 13.774 47.468 16.553 48.332 20.086 47.183 22.748 45.28 23.987 42.622 26.939 34.195 28.074 30.216 29.377 27.623 30.947 26.563 32.6 26.238 33.8 27.077 33.758 28.636 31.582 31.896 29.889 35.596 28.966 39.565 28.745 42.723 29.073 46.602 30.375 48.394 33.412 49.52 35.981 49.171 37.644 48.174 38.697 47.342 39.732 46.769 41.977 47.427 44.595 48.52 46.552 48.028 47.853 45.498 48.485 43.228 48.41 39.218 47.551 33.899 47.287 30.763 48.214 27.851 49.512 24.831 49.945 22.833 49.811 20.696 48.675 19.564 47.308 18.483 45.468 17.749 44.096 17.263 43.033 15.793 41.98 13.509 40.369 11.137 39.035 10.152 36.171 9.966 33.982 10.063 31.357 11.395 29.395 12.646 27.422 13.3 26.013 13.17 24.564 12.176 21.536 10.245 19.28 9.31 17.694 9.22 15.387 9.745 13.849 11.082 12.282 13.129 10.716 15.899 9.868 18.186 9.974 20.292 10.926 22.285 12.31 23.696 14.065 25.471 15.046 27.527 15.601 28.924 15.53 30.409 14.132 31.949 12.232 33.772 10.433 36.245 9.365 37.861 9.173 39.687 9.288 41.81 9.797 44.251 12.236 47.122 -2.496 48.293 -1.862 -1.188 62.894 -0.707 62.898 61.985 -2.593 61.952 -1.962 45.224" class="slow"/>
  <polygon style="fill: none; stroke: rgb(255, 0, 0); stroke-width: 0.2px;" points="36.345 39.234 39.314 38.135 41.882 39.224 40.657 32.275 42.746 25.556 38.647 19.905 35.334 17.672 29.082 19.052 23.532 20.572 19.159 16.665 17.371 17.962 19.65 21.793 22.796 26.701 20.978 34.623 17.257 37.488 15.917 40.57 17.052 41.287 19.917 37.562 21.184 35.137 23.837 23.446 29.948 20.286 34.904 19.124 38.531 21.201 41.399 25.884 38.296 33.516" class="collider"/>
  <polygon style="fill: none; stroke: rgb(255, 0, 0); stroke-width: 0.2px;" points="32.244 13.602 36.557 13.818 43.212 18.239 45.777 23.736 45.832 30.945 45.274 41.374 41.079 43.63 33.874 45.053 31.628 39.927 32.905 34.236 34.698 28.863 34.564 26.665 31.577 24.621 27.943 27.464 23.806 40.227 16.846 43.806 13.679 41.782 17.083 29.684 13.828 18.692 14.874 14.046 19.286 12.731 26.885 14.683" id="track"/>
  <circle style="fill: rgb(107, 218, 85); transform-origin: 37.326px 12.621px;" cx="37.326" cy="12.621" r="0.198" class="pickup"/>
  <circle style="fill: rgb(107, 218, 85); transform-origin: 36.971px 13.507px;" cx="36.971" cy="13.507" r="0.198" class="pickup"/>
  <circle style="fill: rgb(107, 218, 85); transform-origin: 36.752px 14.292px;" cx="36.752" cy="14.292" r="0.198" class="pickup"/>
  <circle style="fill: rgb(107, 218, 85); transform-origin: 48.761px 24.04px;" cx="48.761" cy="24.04" r="0.198" class="pickup"/>
  <circle style="fill: rgb(107, 218, 85); transform-origin: 47.902px 24.109px;" cx="47.902" cy="24.109" r="0.198" class="pickup"/>
  <circle style="fill: rgb(107, 218, 85); transform-origin: 47.009px 24.109px;" cx="47.009" cy="24.109" r="0.198" class="pickup"/>
  <circle style="fill: rgb(107, 218, 85); transform-origin: 45.906px 24.176px;" cx="45.906" cy="24.176" r="0.198" class="pickup"/>
  <circle style="fill: rgb(107, 218, 85); transform-origin: 44.512px 41.825px;" cx="44.512" cy="41.825" r="0.198" class="pickup"/>
  <circle style="fill: rgb(107, 218, 85); transform-origin: 45.359px 42.483px;" cx="45.359" cy="42.483" r="0.198" class="pickup"/>
  <circle style="fill: rgb(107, 218, 85); transform-origin: 46.588px 43.123px;" cx="46.588" cy="43.123" r="0.198" class="pickup"/>
  <circle style="fill: rgb(107, 218, 85); transform-origin: 47.25px 43.624px;" cx="47.25" cy="43.624" r="0.198" class="pickup"/>
  <circle style="fill: rgb(107, 218, 85); transform-origin: 32.697px 38.723px;" cx="32.697" cy="38.723" r="0.198" class="pickup"/>
  <circle style="fill: rgb(107, 218, 85); transform-origin: 31.833px 38.535px;" cx="31.833" cy="38.535" r="0.198" class="pickup"/>
  <circle style="fill: rgb(107, 218, 85); transform-origin: 30.751px 38.42px;" cx="30.751" cy="38.42" r="0.198" class="pickup"/>
  <circle style="fill: rgb(107, 218, 85); transform-origin: 29.633px 38.265px;" cx="29.633" cy="38.265" r="0.198" class="pickup"/>
  <circle style="fill: rgb(107, 218, 85); transform-origin: 23.954px 30.886px;" cx="23.954" cy="30.886" r="0.198" class="pickup"/>
  <circle style="fill: rgb(107, 218, 85); transform-origin: 25.046px 31.184px;" cx="25.046" cy="31.184" r="0.198" class="pickup"/>
  <circle style="fill: rgb(107, 218, 85); transform-origin: 26.107px 31.507px;" cx="26.107" cy="31.507" r="0.198" class="pickup"/>
  <circle style="fill: rgb(107, 218, 85); transform-origin: 26.891px 31.736px;" cx="26.891" cy="31.736" r="0.198" class="pickup"/>
  <circle style="fill: rgb(107, 218, 85); transform-origin: 16.585px 35.186px;" cx="16.585" cy="35.186" r="0.198" class="pickup"/>
  <circle style="fill: rgb(107, 218, 85); transform-origin: 15.646px 34.738px;" cx="15.646" cy="34.738" r="0.198" class="pickup"/>
  <circle style="fill: rgb(107, 218, 85); transform-origin: 14.69px 34.081px;" cx="14.69" cy="34.081" r="0.198" class="pickup"/>
  <circle style="fill: rgb(107, 218, 85); transform-origin: 13.928px 33.68px;" cx="13.928" cy="33.68" r="0.198" class="pickup"/>
  <circle style="fill: rgb(107, 218, 85); transform-origin: 14.3px 18.124px;" cx="14.3" cy="18.124" r="0.198" class="pickup"/>
  <circle style="fill: rgb(107, 218, 85); transform-origin: 13.244px 17.903px;" cx="13.244" cy="17.903" r="0.198" class="pickup"/>
  <circle style="fill: rgb(107, 218, 85); transform-origin: 12.445px 17.686px;" cx="12.445" cy="17.686" r="0.198" class="pickup"/>
  <circle style="fill: rgb(107, 218, 85); transform-origin: 11.591px 17.601px;" cx="11.591" cy="17.601" r="0.198" class="pickup"/>
  <circle style="fill: rgb(107, 218, 85); transform-origin: 22.845px 12.485px;" cx="22.845" cy="12.485" r="0.198" class="pickup"/>
  <circle style="fill: rgb(107, 218, 85); transform-origin: 22.588px 13.325px;" cx="22.588" cy="13.325" r="0.198" class="pickup"/>
  <circle style="fill: rgb(107, 218, 85); transform-origin: 22.291px 14.154px;" cx="22.291" cy="14.154" r="0.198" class="pickup"/>
  <circle style="fill: rgb(107, 218, 85); transform-origin: 21.951px 15.023px;" cx="21.951" cy="15.023" r="0.198" class="pickup"/>
</svg>