<?xml version="1.0" encoding="utf-8"?>
<svg viewBox="0 0 60 60" width="60" height="60" xmlns="http://www.w3.org/2000/svg" xmlns:xlink="http://www.w3.org/1999/xlink">
  <defs/>
  <image width="60" height="60" class="collider" xlink:href="Milky Way.png"/>
  <polygon style="fill: none; stroke: rgb(255, 0, 0);" points="31.397 19.614 32.179 28.069 25.77 31.283 19.441 29.22 18.024 22.199 22.681 15.389 35.472 12.099 40.165 14.939 41.299 19.88 41.357 25.06 47.899 31.47 47.703 39.227 44.654 44.749 37.238 45.738 34.064 40.726 36.4 34.66 43.621 35.894 46.237 41.54 41.429 47.274 36.481 48.415 28.811 45.821 25.045 45.462 16.557 46.282 12.016 41.707 13.521 24.002 17.142 18.484 23.289 16.336" id="track" transform="matrix(1, 0, 0, 1, 4.440892098500626e-16, -1.7763568394002505e-15)"/>
  <polygon style="fill: none; stroke: rgb(255, 0, 0); stroke-width: 0.2px;" points="23.191 18.389 23.959 18.333 26.235 18.885 28.388 19.972 30.16 21.425 31.423 23.068 31.29 24.939 30.631 26.679 28.572 28.412 25.99 29.123 24.124 29.299 22.254 28.821 20.765 27.482 20.053 25.6 20.155 23.521 20.666 21.674 21.747 19.97" class="collider"/>
  <polygon style="fill: none; stroke: rgb(255, 0, 0); stroke-width: 0.2px;" points="29.469 16.024 31.81 15.078 33.41 14.754 35.333 14.576 36.539 14.619 37.568 15.393 38.603 16.354 39.051 17.793 39.111 19.204 38.875 20.955 38.506 22.736 38.455 24.078 38.78 25.426 39.559 26.867 40.66 27.829 42.203 28.791 43.137 29.417 44.32 30.89 45.404 32.434 45.96 33.496 46.103 34.806 46 35.631 44.374 33.871 42.856 32.708 41.474 32.027 40.014 31.734 38.214 31.696 36.866 32.024 35.557 32.569 34.333 33.481 33.249 34.807 32.341 36.294 31.753 38.23 31.476 40.105 31.581 41.844 32.272 43.272 33.329 44.455 34.631 45.95 32.194 45.053 29.277 44.126 27.63 43.613 25.377 43.491 23.764 43.799 21.974 44.177 19.758 44.62 18.471 44.491 17.367 44.091 15.983 43.01 14.989 41.649 14.596 40.467 14.382 37.758 14.221 35.666 14.284 32.862 14.676 30.261 15.201 28.289 15.705 27.255 16.51 29.17 17.51 30.688 18.906 31.943 20.444 32.674 22.665 33.325 24.588 33.443 26.619 33.386 28.49 32.852 30.456 32.033 32.496 30.79 33.655 29.801 34.665 28.585 35.321 26.697 35.823 25.271 36.049 23.486 35.588 21.715 34.766 19.549 33.873 18.352 32.651 17.535 31.277 16.904" class="collider"/>
  <polygon style="fill: none; stroke: rgb(255, 0, 0); stroke-width: 0.2px;" points="24.757 47.788 22.588 48.279 21.218 48.487 20.108 48.715 17.686 48.705 15.746 48.541 14.236 48.058 12.531 47.269 11.352 46.455 10.528 45.421 10.147 44.111 10.112 42.175 10.222 40.419 10.16 37.143 10.089 35.952 10.178 34.298 9.82 32.739 9.823 31.562 10.212 29.484 11.01 26.868 11.845 24.901 12.056 24.301 12.115 23.192 12.54 21.547 13.614 19.372 14.964 17.546 16.256 16.209 17.488 15.517 18.546 15.287 20.182 13.668 21.838 12.891 23.453 12.429 24.608 12.356 24.943 12.466 31.1 10.758 33.064 10.02 34.433 9.868 35.899 10.001 37.735 10.409 39.422 10.968 40.664 11.772 41.597 12.879 42.322 14.031 42.794 15.352 43.193 16.819 43.253 18.254 43.153 19.556 42.99 20.997 42.786 22.282 43.04 23.624 43.806 24.715 44.899 25.484 46.777 26.283 47.605 26.91 48.591 27.857 49.381 29.109 50.021 30.228 50.392 31.793 50.636 33.404 50.613 35.03 50.637 36.769 50.548 38.13 50.109 39.663 49.77 40.976 49.211 42.266 48.458 43.25 47.428 44.465 46.547 45.484 45.925 46.938 44.76 48.369 43.158 49.454 41.318 50.02 38.688 50.386 36.484 50.316 34.368 50.231 32.88 49.904 31.322 49.353 29.706 48.693 27.979 48.255 26.365 47.902 24.761 47.788 24.973 62.207 61.864 62.652 61.939 -1.573 -2.594 -1.026 -2.285 61.175 26.199 61.927" class="collider"/>
  <polygon style="fill: none; stroke: rgb(255, 0, 0); stroke-width: 0.2px;" points="37.803 36.643 38.675 36.473 39.588 36.473 40.89 36.848 41.904 37.56 42.49 38.405 42.845 39.637 43.003 41.01 42.972 42.086 42.321 42.969 41.116 43.556 40.126 43.741 39.083 43.515 37.906 42.782 36.913 42.027 36.278 41.004 36.119 39.968 36.443 38.829 37.008 37.698" class="collider"/>
  <circle style="fill: rgb(107, 218, 85); transform-origin: 37.645px 11.229px;" cx="37.645" cy="11.229" r="0.198" class="pickup"/>
  <circle style="fill: rgb(107, 218, 85); transform-origin: 37.486px 11.911px;" cx="37.486" cy="11.911" r="0.198" class="pickup"/>
  <circle style="fill: rgb(107, 218, 85); transform-origin: 37.268px 12.804px;" cx="37.268" cy="12.804" r="0.198" class="pickup"/>
  <circle style="fill: rgb(107, 218, 85); transform-origin: 37.073px 13.734px;" cx="37.073" cy="13.734" r="0.198" class="pickup"/>
  <circle style="fill: rgb(107, 218, 85); transform-origin: 42.233px 21.866px;" cx="42.233" cy="21.866" r="0.198" class="pickup"/>
  <circle style="fill: rgb(107, 218, 85); transform-origin: 41.418px 22.012px;" cx="41.418" cy="22.012" r="0.198" class="pickup"/>
  <circle style="fill: rgb(107, 218, 85); transform-origin: 40.46px 22.126px;" cx="40.46" cy="22.126" r="0.198" class="pickup"/>
  <circle style="fill: rgb(107, 218, 85); transform-origin: 39.453px 22.275px;" cx="39.453" cy="22.275" r="0.198" class="pickup"/>
  <circle style="fill: rgb(107, 218, 85); transform-origin: 46.054px 44.656px;" cx="46.054" cy="44.656" r="0.198" class="pickup"/>
  <circle style="fill: rgb(107, 218, 85); transform-origin: 45.167px 44.309px;" cx="45.167" cy="44.309" r="0.198" class="pickup"/>
  <circle style="fill: rgb(107, 218, 85); transform-origin: 44.156px 43.826px;" cx="44.156" cy="43.826" r="0.198" class="pickup"/>
  <circle style="fill: rgb(107, 218, 85); transform-origin: 43.292px 43.261px;" cx="43.292" cy="43.261" r="0.198" class="pickup"/>
  <circle style="fill: rgb(107, 218, 85); transform-origin: 35.588px 33.479px;" cx="35.588" cy="33.479" r="0.198" class="pickup"/>
  <circle style="fill: rgb(107, 218, 85); transform-origin: 36.044px 34.061px;" cx="36.044" cy="34.061" r="0.198" class="pickup"/>
  <circle style="fill: rgb(107, 218, 85); transform-origin: 36.551px 34.644px;" cx="36.551" cy="34.644" r="0.198" class="pickup"/>
  <circle style="fill: rgb(107, 218, 85); transform-origin: 36.962px 35.581px;" cx="36.962" cy="35.581" r="0.198" class="pickup"/>
  <circle style="fill: rgb(107, 218, 85); transform-origin: 22.772px 44.688px;" cx="22.772" cy="44.688" r="0.198" class="pickup"/>
  <circle style="fill: rgb(107, 218, 85); transform-origin: 22.999px 45.295px;" cx="22.999" cy="45.295" r="0.198" class="pickup"/>
  <circle style="fill: rgb(107, 218, 85); transform-origin: 23.192px 46.236px;" cx="23.192" cy="46.236" r="0.198" class="pickup"/>
  <circle style="fill: rgb(107, 218, 85); transform-origin: 23.395px 47.135px;" cx="23.395" cy="47.135" r="0.198" class="pickup"/>
  <circle style="fill: rgb(107, 218, 85); transform-origin: 10.65px 30.697px;" cx="10.65" cy="30.697" r="0.198" class="pickup"/>
  <circle style="fill: rgb(107, 218, 85); transform-origin: 11.46px 30.936px;" cx="11.46" cy="30.936" r="0.198" class="pickup"/>
  <circle style="fill: rgb(107, 218, 85); transform-origin: 12.367px 31.093px;" cx="12.367" cy="31.093" r="0.198" class="pickup"/>
  <circle style="fill: rgb(107, 218, 85); transform-origin: 13.321px 31.357px;" cx="13.321" cy="31.357" r="0.198" class="pickup"/>
  <circle style="fill: rgb(107, 218, 85); transform-origin: 30.656px 20.72px;" cx="30.656" cy="20.72" r="0.198" class="pickup"/>
  <circle style="fill: rgb(107, 218, 85); transform-origin: 32.2px 19.886px;" cx="32.2" cy="19.886" r="0.198" class="pickup"/>
  <circle style="fill: rgb(107, 218, 85); transform-origin: 31.529px 20.364px;" cx="31.529" cy="20.364" r="0.198" class="pickup"/>
  <circle style="fill: rgb(107, 218, 85); transform-origin: 33.158px 19.352px;" cx="33.158" cy="19.352" r="0.198" class="pickup"/>
</svg>