<?xml version="1.0" encoding="utf-8"?>
<svg viewBox="0 0 60 60" width="60" height="60" xmlns="http://www.w3.org/2000/svg" xmlns:xlink="http://www.w3.org/1999/xlink">
  <defs/>
  <image width="60" height="60" xlink:href="Milky Way.png"/>
  <polygon style="fill: none; stroke: rgb(255, 0, 0);" points="31.397 19.614 32.179 28.069 25.77 31.283 19.441 29.22 18.024 22.199 22.681 15.389 35.472 12.099 40.165 14.939 41.299 19.88 41.357 25.06 47.899 31.47 47.703 39.227 44.654 44.749 37.238 45.738 34.064 40.726 36.4 34.66 43.621 35.894 46.237 41.54 41.429 47.274 36.481 48.415 28.811 45.821 25.045 45.462 16.557 46.282 12.016 41.707 13.521 24.002 17.142 18.484 23.289 16.336" id="track" transform="matrix(1, 0, 0, 1, 4.440892098500626e-16, -1.7763568394002505e-15)"/>
  <circle style="fill: rgb(107, 218, 85); transform-origin: 25.983px 13.114px;" cx="25.983" cy="13.114" r="0.198" class="pickup"/>
  <circle style="fill: rgb(107, 218, 85); transform-origin: 26.394px 13.974px;" cx="26.394" cy="13.974" r="0.198" class="pickup"/>
  <circle style="fill: rgb(107, 218, 85); transform-origin: 26.88px 14.96px;" cx="26.88" cy="14.96" r="0.198" class="pickup"/>
  <circle style="fill: rgb(107, 218, 85); transform-origin: 27.252px 15.756px;" cx="27.252" cy="15.756" r="0.198" class="pickup"/>
</svg>